<svg version="1.1" xmlns="http://www.w3.org/2000/svg" xmlns:xlink="http://www.w3.org/1999/xlink" width="596" height="701"><defs/><g><text fill="#eeeeee" stroke="none" font-family="Arial" font-size="24px" font-style="normal" font-weight="normal" text-decoration="none" x="0" y="0"></text><text fill="#eeeeee" stroke="none" font-family="Arial" font-size="24px" font-style="normal" font-weight="normal" text-decoration="none" x="0" y="30"></text><text fill="#eeeeee" stroke="none" font-family="Arial" font-size="24px" font-style="normal" font-weight="normal" text-decoration="none" x="0" y="60"></text><text fill="#eeeeee" stroke="none" font-family="Arial" font-size="24px" font-style="normal" font-weight="normal" text-decoration="none" x="0" y="90"></text><text fill="#eeeeee" stroke="none" font-family="Arial" font-size="24px" font-style="normal" font-weight="normal" text-decoration="none" x="0" y="120"></text><text fill="#eeeeee" stroke="none" font-family="Arial" font-size="24px" font-style="normal" font-weight="normal" text-decoration="none" x="0" y="150"></text><text fill="#eeeeee" stroke="none" font-family="Arial" font-size="24px" font-style="normal" font-weight="normal" text-decoration="none" x="0" y="180"></text><text fill="#eeeeee" stroke="none" font-family="Arial" font-size="24px" font-style="normal" font-weight="normal" text-decoration="none" x="0" y="210"></text><text fill="#eeeeee" stroke="none" font-family="Arial" font-size="24px" font-style="normal" font-weight="normal" text-decoration="none" x="0" y="240"></text><text fill="#eeeeee" stroke="none" font-family="Arial" font-size="24px" font-style="normal" font-weight="normal" text-decoration="none" x="0" y="270"></text><text fill="#eeeeee" stroke="none" font-family="Arial" font-size="24px" font-style="normal" font-weight="normal" text-decoration="none" x="0" y="300"></text><text fill="#eeeeee" stroke="none" font-family="Arial" font-size="24px" font-style="normal" font-weight="normal" text-decoration="none" x="0" y="330"></text><text fill="#eeeeee" stroke="none" font-family="Arial" font-size="24px" font-style="normal" font-weight="normal" text-decoration="none" x="0" y="360"></text><text fill="#eeeeee" stroke="none" font-family="Arial" font-size="24px" font-style="normal" font-weight="normal" text-decoration="none" x="0" y="390"></text><text fill="#eeeeee" stroke="none" font-family="Arial" font-size="24px" font-style="normal" font-weight="normal" text-decoration="none" x="0" y="420"></text><text fill="#eeeeee" stroke="none" font-family="Arial" font-size="24px" font-style="normal" font-weight="normal" text-decoration="none" x="0" y="450"></text><text fill="#eeeeee" stroke="none" font-family="Arial" font-size="24px" font-style="normal" font-weight="normal" text-decoration="none" x="0" y="480"></text><text fill="#eeeeee" stroke="none" font-family="Arial" font-size="24px" font-style="normal" font-weight="normal" text-decoration="none" x="0" y="510"></text><text fill="#eeeeee" stroke="none" font-family="Arial" font-size="24px" font-style="normal" font-weight="normal" text-decoration="none" x="0" y="540"></text><text fill="#eeeeee" stroke="none" font-family="Arial" font-size="24px" font-style="normal" font-weight="normal" text-decoration="none" x="0" y="570"></text><text fill="#eeeeee" stroke="none" font-family="Arial" font-size="24px" font-style="normal" font-weight="normal" text-decoration="none" x="0" y="600"></text><text fill="#eeeeee" stroke="none" font-family="Arial" font-size="24px" font-style="normal" font-weight="normal" text-decoration="none" x="0" y="630"></text><text fill="#eeeeee" stroke="none" font-family="Arial" font-size="24px" font-style="normal" font-weight="normal" text-decoration="none" x="0" y="660"></text><text fill="#eeeeee" stroke="none" font-family="Arial" font-size="24px" font-style="normal" font-weight="normal" text-decoration="none" x="0" y="690"></text><text fill="#eeeeee" stroke="none" font-family="Arial" font-size="24px" font-style="normal" font-weight="normal" text-decoration="none" x="200" y="0"></text><text fill="#eeeeee" stroke="none" font-family="Arial" font-size="24px" font-style="normal" font-weight="normal" text-decoration="none" x="200" y="30"></text><text fill="#eeeeee" stroke="none" font-family="Arial" font-size="24px" font-style="normal" font-weight="normal" text-decoration="none" x="200" y="60"></text><text fill="#eeeeee" stroke="none" font-family="Arial" font-size="24px" font-style="normal" font-weight="normal" text-decoration="none" x="200" y="90"></text><text fill="#eeeeee" stroke="none" font-family="Arial" font-size="24px" font-style="normal" font-weight="normal" text-decoration="none" x="200" y="120"></text><text fill="#eeeeee" stroke="none" font-family="Arial" font-size="24px" font-style="normal" font-weight="normal" text-decoration="none" x="200" y="150"></text><text fill="#eeeeee" stroke="none" font-family="Arial" font-size="24px" font-style="normal" font-weight="normal" text-decoration="none" x="200" y="180"></text><text fill="#eeeeee" stroke="none" font-family="Arial" font-size="24px" font-style="normal" font-weight="normal" text-decoration="none" x="200" y="210"></text><text fill="#eeeeee" stroke="none" font-family="Arial" font-size="24px" font-style="normal" font-weight="normal" text-decoration="none" x="200" y="240"></text><text fill="#eeeeee" stroke="none" font-family="Arial" font-size="24px" font-style="normal" font-weight="normal" text-decoration="none" x="200" y="270"></text><text fill="#eeeeee" stroke="none" font-family="Arial" font-size="24px" font-style="normal" font-weight="normal" text-decoration="none" x="200" y="300"></text><text fill="#eeeeee" stroke="none" font-family="Arial" font-size="24px" font-style="normal" font-weight="normal" text-decoration="none" x="200" y="330"></text><text fill="#eeeeee" stroke="none" font-family="Arial" font-size="24px" font-style="normal" font-weight="normal" text-decoration="none" x="200" y="360"></text><text fill="#eeeeee" stroke="none" font-family="Arial" font-size="24px" font-style="normal" font-weight="normal" text-decoration="none" x="200" y="390"></text><text fill="#eeeeee" stroke="none" font-family="Arial" font-size="24px" font-style="normal" font-weight="normal" text-decoration="none" x="200" y="420"></text><text fill="#eeeeee" stroke="none" font-family="Arial" font-size="24px" font-style="normal" font-weight="normal" text-decoration="none" x="200" y="450"></text><text fill="#eeeeee" stroke="none" font-family="Arial" font-size="24px" font-style="normal" font-weight="normal" text-decoration="none" x="200" y="480"></text><text fill="#eeeeee" stroke="none" font-family="Arial" font-size="24px" font-style="normal" font-weight="normal" text-decoration="none" x="200" y="510"></text><text fill="#eeeeee" stroke="none" font-family="Arial" font-size="24px" font-style="normal" font-weight="normal" text-decoration="none" x="200" y="540"></text><text fill="#eeeeee" stroke="none" font-family="Arial" font-size="24px" font-style="normal" font-weight="normal" text-decoration="none" x="200" y="570"></text><text fill="#eeeeee" stroke="none" font-family="Arial" font-size="24px" font-style="normal" font-weight="normal" text-decoration="none" x="200" y="600"></text><text fill="#eeeeee" stroke="none" font-family="Arial" font-size="24px" font-style="normal" font-weight="normal" text-decoration="none" x="200" y="630"></text><text fill="#eeeeee" stroke="none" font-family="Arial" font-size="24px" font-style="normal" font-weight="normal" text-decoration="none" x="200" y="660"></text><text fill="#eeeeee" stroke="none" font-family="Arial" font-size="24px" font-style="normal" font-weight="normal" text-decoration="none" x="200" y="690"></text><text fill="#eeeeee" stroke="none" font-family="Arial" font-size="24px" font-style="normal" font-weight="normal" text-decoration="none" x="400" y="0"></text><text fill="#eeeeee" stroke="none" font-family="Arial" font-size="24px" font-style="normal" font-weight="normal" text-decoration="none" x="400" y="30"></text><text fill="#eeeeee" stroke="none" font-family="Arial" font-size="24px" font-style="normal" font-weight="normal" text-decoration="none" x="400" y="60"></text><text fill="#eeeeee" stroke="none" font-family="Arial" font-size="24px" font-style="normal" font-weight="normal" text-decoration="none" x="400" y="90"></text><text fill="#eeeeee" stroke="none" font-family="Arial" font-size="24px" font-style="normal" font-weight="normal" text-decoration="none" x="400" y="120"></text><text fill="#eeeeee" stroke="none" font-family="Arial" font-size="24px" font-style="normal" font-weight="normal" text-decoration="none" x="400" y="150"></text><text fill="#eeeeee" stroke="none" font-family="Arial" font-size="24px" font-style="normal" font-weight="normal" text-decoration="none" x="400" y="180"></text><text fill="#eeeeee" stroke="none" font-family="Arial" font-size="24px" font-style="normal" font-weight="normal" text-decoration="none" x="400" y="210"></text><text fill="#eeeeee" stroke="none" font-family="Arial" font-size="24px" font-style="normal" font-weight="normal" text-decoration="none" x="400" y="240"></text><text fill="#eeeeee" stroke="none" font-family="Arial" font-size="24px" font-style="normal" font-weight="normal" text-decoration="none" x="400" y="270"></text><text fill="#eeeeee" stroke="none" font-family="Arial" font-size="24px" font-style="normal" font-weight="normal" text-decoration="none" x="400" y="300"></text><text fill="#eeeeee" stroke="none" font-family="Arial" font-size="24px" font-style="normal" font-weight="normal" text-decoration="none" x="400" y="330"></text><text fill="#eeeeee" stroke="none" font-family="Arial" font-size="24px" font-style="normal" font-weight="normal" text-decoration="none" x="400" y="360"></text><text fill="#eeeeee" stroke="none" font-family="Arial" font-size="24px" font-style="normal" font-weight="normal" text-decoration="none" x="400" y="390"></text><text fill="#eeeeee" stroke="none" font-family="Arial" font-size="24px" font-style="normal" font-weight="normal" text-decoration="none" x="400" y="420"></text><text fill="#eeeeee" stroke="none" font-family="Arial" font-size="24px" font-style="normal" font-weight="normal" text-decoration="none" x="400" y="450"></text><text fill="#eeeeee" stroke="none" font-family="Arial" font-size="24px" font-style="normal" font-weight="normal" text-decoration="none" x="400" y="480"></text><text fill="#eeeeee" stroke="none" font-family="Arial" font-size="24px" font-style="normal" font-weight="normal" text-decoration="none" x="400" y="510"></text><text fill="#eeeeee" stroke="none" font-family="Arial" font-size="24px" font-style="normal" font-weight="normal" text-decoration="none" x="400" y="540"></text><text fill="#eeeeee" stroke="none" font-family="Arial" font-size="24px" font-style="normal" font-weight="normal" text-decoration="none" x="400" y="570"></text><text fill="#eeeeee" stroke="none" font-family="Arial" font-size="24px" font-style="normal" font-weight="normal" text-decoration="none" x="400" y="600"></text><text fill="#eeeeee" stroke="none" font-family="Arial" font-size="24px" font-style="normal" font-weight="normal" text-decoration="none" x="400" y="630"></text><text fill="#eeeeee" stroke="none" font-family="Arial" font-size="24px" font-style="normal" font-weight="normal" text-decoration="none" x="400" y="660"></text><text fill="#eeeeee" stroke="none" font-family="Arial" font-size="24px" font-style="normal" font-weight="normal" text-decoration="none" x="400" y="690"></text><g transform="translate(-62,-70) scale(1,1)"><rect fill="#ffffff" stroke="none" x="88" y="80" width="560" height="195"/></g><g transform="translate(-62,-70) scale(1,1)"><path fill="none" stroke="#000000" d="M 88 80 L 648 80 L 648 275 L 88 275 L 88 80 Z Z" stroke-miterlimit="10"/></g><g transform="translate(-62,-70) scale(1,1)"><g><path fill="none" stroke="none"/><text fill="#000000" stroke="none" font-family="Arial" font-size="13px" font-style="normal" font-weight="normal" text-decoration="none" x="93" y="95.45200061798096">A 사이트에서는 모든 사용자들이 A 사이트의 게시글을 볼 수 있는 서비스를 만들려고 한다. 물론 게시글을</text><text fill="#000000" stroke="none" font-family="Arial" font-size="13px" font-style="normal" font-weight="normal" text-decoration="none" x="93" y="108.45200061798096">작성 및 수정, 삭제할 수 있는 기능은 A 사이트 회원으로 가입한 회원만 사용할 수 있으며 일반 사용자는</text><text fill="#000000" stroke="none" font-family="Arial" font-size="13px" font-style="normal" font-weight="normal" text-decoration="none" x="93" y="121.45200061798096">게시글을 볼 수만 있다.</text></g></g><g transform="translate(-62,-70) scale(1,1)"><g><path fill="none" stroke="none"/></g></g><g transform="translate(-62,-70) scale(1,1)"><g><path fill="none" stroke="none"/><text fill="#000000" stroke="none" font-family="Arial" font-size="13px" font-style="normal" font-weight="normal" text-decoration="none" x="93" y="138.45200061798096">그리고 게시글을 작성하는 회원은 이미지를 업로드하여 게시할 수 있으며 작성된 글에 대한 삭제는 반드시</text><text fill="#000000" stroke="none" font-family="Arial" font-size="13px" font-style="normal" font-weight="normal" text-decoration="none" x="93" y="151.45200061798096">글을 작성한 회원의 비밀번호를 확인한 후에 삭제할 수 있다.</text></g></g><g transform="translate(-62,-70) scale(1,1)"><g><path fill="none" stroke="none"/></g></g><g transform="translate(-62,-70) scale(1,1)"><g><path fill="none" stroke="none"/></g></g><g transform="translate(-62,-70) scale(1,1)"><g><path fill="none" stroke="none"/><text fill="#000000" stroke="none" font-family="Arial" font-size="13px" font-style="normal" font-weight="normal" text-decoration="none" x="93" y="170.45200061798096">액터</text></g></g><g transform="translate(-62,-70) scale(1,1)"><g><path fill="none" stroke="none"/><text fill="#000000" stroke="none" font-family="Arial" font-size="13px" font-style="normal" font-weight="normal" text-decoration="none" x="93" y="185.45200061798096">    일반 사용자</text></g></g><g transform="translate(-62,-70) scale(1,1)"><g><path fill="none" stroke="none"/><text fill="#000000" stroke="none" font-family="Arial" font-size="13px" font-style="normal" font-weight="normal" text-decoration="none" x="93" y="200.45200061798096">    회원</text></g></g><g transform="translate(-62,-70) scale(1,1)"><g><path fill="none" stroke="none"/></g></g><g transform="translate(-62,-70) scale(1,1)"><g><path fill="none" stroke="none"/></g></g><g transform="translate(-62,-70) scale(1,1)"><g><path fill="none" stroke="none"/><text fill="#000000" stroke="none" font-family="Arial" font-size="13px" font-style="normal" font-weight="normal" text-decoration="none" x="93" y="219.45200061798096">유스케이스</text></g></g><g transform="translate(-62,-70) scale(1,1)"><g><path fill="none" stroke="none"/><text fill="#000000" stroke="none" font-family="Arial" font-size="13px" font-style="normal" font-weight="normal" text-decoration="none" x="93" y="234.45200061798096">    게시글 보기, 게시글 작성, 게시글 수정, 게시글 삭제, 이미지 업로드</text></g></g><g transform="translate(-62,-70) scale(1,1)"><g><path fill="none" stroke="none"/><text fill="#000000" stroke="none" font-family="Arial" font-size="13px" font-style="normal" font-weight="normal" text-decoration="none" x="93" y="249.45200061798096">    비밀번호 확인, 회원가입, 로그인</text></g></g><g transform="translate(-62,-70) scale(1,1)"><g><path fill="none" stroke="none"/><text fill="#000000" stroke="none" font-family="Arial" font-size="13px" font-style="normal" font-weight="normal" text-decoration="none" x="93" y="254">    </text></g></g><g transform="translate(-62,-70) scale(1,1)"><g><path fill="none" stroke="none"/></g></g><g transform="translate(-62,-70) scale(1,1)"><path fill="#ffffff" stroke="none" d="M 97.73912326882102 361.68 C 97.73912326882102 356.886167936 101.62496559376648 353 106.41839599609375 353 C 111.21182639842102 353 115.09766872336648 356.886167936 115.09766872336648 361.68 C 115.09766872336648 366.473832064 111.21182639842102 370.36 106.41839599609375 370.36 C 101.62496559376648 370.36 97.73912326882102 366.473832064 97.73912326882102 361.68 Z"/></g><g transform="translate(-62,-70) scale(1,1)"><path fill="none" stroke="#000000" d="M 97.73912326882102 361.68 C 97.73912326882102 356.886167936 101.62496559376648 353 106.41839599609375 353 C 111.21182639842102 353 115.09766872336648 356.886167936 115.09766872336648 361.68 C 115.09766872336648 366.473832064 111.21182639842102 370.36 106.41839599609375 370.36 C 101.62496559376648 370.36 97.73912326882102 366.473832064 97.73912326882102 361.68 Z" stroke-miterlimit="10"/></g><g transform="translate(-62,-70) scale(1,1)"><path fill="none" stroke="#000000" d="M 106.41839599609375 370.36 L 106.41839599609375 387.64" stroke-miterlimit="10"/></g><g transform="translate(-62,-70) scale(1,1)"><path fill="none" stroke="#000000" d="M 97.22857781427557 376.84 L 115.60821417791193 376.84" stroke-miterlimit="10"/></g><g transform="translate(-62,-70) scale(1,1)"><path fill="none" stroke="#000000" d="M 106.41839599609375 387.64 L 93.65475963245738 405" stroke-miterlimit="10"/></g><g transform="translate(-62,-70) scale(1,1)"><path fill="none" stroke="#000000" d="M 106.41839599609375 387.64 L 119.18203235973012 405" stroke-miterlimit="10"/></g><g transform="translate(-62,-70) scale(1,1)"><g><path fill="none" stroke="none"/><text fill="#000000" stroke="none" font-family="Arial" font-size="13px" font-style="normal" font-weight="bold" text-decoration="none" x="76.5" y="424.2260003089905">일반 사용자</text></g></g><g transform="translate(-62,-70) scale(1,1)"><path fill="#ffffff" stroke="none" d="M 96.40935031960227 521.6800000000001 C 96.40935031960227 516.8861679360001 100.29519264454773 513 105.088623046875 513 C 109.88205344920227 513 113.76789577414773 516.8861679360001 113.76789577414773 521.6800000000001 C 113.76789577414773 526.473832064 109.88205344920227 530.36 105.088623046875 530.36 C 100.29519264454773 530.36 96.40935031960227 526.473832064 96.40935031960227 521.6800000000001 Z"/></g><g transform="translate(-62,-70) scale(1,1)"><path fill="none" stroke="#000000" d="M 96.40935031960227 521.6800000000001 C 96.40935031960227 516.8861679360001 100.29519264454773 513 105.088623046875 513 C 109.88205344920227 513 113.76789577414773 516.8861679360001 113.76789577414773 521.6800000000001 C 113.76789577414773 526.473832064 109.88205344920227 530.36 105.088623046875 530.36 C 100.29519264454773 530.36 96.40935031960227 526.473832064 96.40935031960227 521.6800000000001 Z" stroke-miterlimit="10"/></g><g transform="translate(-62,-70) scale(1,1)"><path fill="none" stroke="#000000" d="M 105.088623046875 530.36 L 105.088623046875 547.64" stroke-miterlimit="10"/></g><g transform="translate(-62,-70) scale(1,1)"><path fill="none" stroke="#000000" d="M 95.89880486505682 536.84 L 114.27844122869318 536.84" stroke-miterlimit="10"/></g><g transform="translate(-62,-70) scale(1,1)"><path fill="none" stroke="#000000" d="M 105.088623046875 547.64 L 92.32498668323863 565" stroke-miterlimit="10"/></g><g transform="translate(-62,-70) scale(1,1)"><path fill="none" stroke="#000000" d="M 105.088623046875 547.64 L 117.85225941051137 565" stroke-miterlimit="10"/></g><g transform="translate(-62,-70) scale(1,1)"><g><path fill="none" stroke="none"/><text fill="#000000" stroke="none" font-family="Arial" font-size="13px" font-style="normal" font-weight="bold" text-decoration="none" x="93.8436279296875" y="584.2260003089905">회원</text></g></g><g transform="translate(-62,-70) scale(1,1)"><path fill="#C0C0C0" stroke="none" d="M 279 400 C 279 390.6111584 301.6096176 383 329.5 383 C 357.3903824 383 380 390.6111584 380 400 C 380 409.3888416 357.3903824 417 329.5 417 C 301.6096176 417 279 409.3888416 279 400 Z" opacity="0.2"/></g><g transform="translate(-62,-70) scale(1,1)"><path fill="#ffffff" stroke="none" d="M 272 393 C 272 383.6111584 294.6096176 376 322.5 376 C 350.3903824 376 373 383.6111584 373 393 C 373 402.3888416 350.3903824 410 322.5 410 C 294.6096176 410 272 402.3888416 272 393 Z"/></g><g transform="translate(-62,-70) scale(1,1)"><path fill="none" stroke="#000000" d="M 272 393 C 272 383.6111584 294.6096176 376 322.5 376 C 350.3903824 376 373 383.6111584 373 393 C 373 402.3888416 350.3903824 410 322.5 410 C 294.6096176 410 272 402.3888416 272 393 Z" stroke-miterlimit="10"/></g><g transform="translate(-62,-70) scale(1,1)"><g><path fill="none" stroke="none"/><text fill="#000000" stroke="none" font-family="Arial" font-size="13px" font-style="normal" font-weight="bold" text-decoration="none" x="292.58160400390625" y="398.7260003089905">게시글 보기</text></g></g><g transform="translate(-62,-70) scale(1,1)"><path fill="#C0C0C0" stroke="none" d="M 279 512 C 279 502.6111584 301.6096176 495 329.5 495 C 357.3903824 495 380 502.6111584 380 512 C 380 521.3888416 357.3903824 529 329.5 529 C 301.6096176 529 279 521.3888416 279 512 Z" opacity="0.2"/></g><g transform="translate(-62,-70) scale(1,1)"><path fill="#ffffff" stroke="none" d="M 272 505 C 272 495.6111584 294.6096176 488 322.5 488 C 350.3903824 488 373 495.6111584 373 505 C 373 514.3888416 350.3903824 522 322.5 522 C 294.6096176 522 272 514.3888416 272 505 Z"/></g><g transform="translate(-62,-70) scale(1,1)"><path fill="none" stroke="#000000" d="M 272 505 C 272 495.6111584 294.6096176 488 322.5 488 C 350.3903824 488 373 495.6111584 373 505 C 373 514.3888416 350.3903824 522 322.5 522 C 294.6096176 522 272 514.3888416 272 505 Z" stroke-miterlimit="10"/></g><g transform="translate(-62,-70) scale(1,1)"><g><path fill="none" stroke="none"/><text fill="#000000" stroke="none" font-family="Arial" font-size="13px" font-style="normal" font-weight="bold" text-decoration="none" x="292.58160400390625" y="510.7260003089905">게시글 작성</text></g></g><g transform="translate(-62,-70) scale(1,1)"><path fill="#C0C0C0" stroke="none" d="M 279 584 C 279 574.6111584 301.6096176 567 329.5 567 C 357.3903824 567 380 574.6111584 380 584 C 380 593.3888416 357.3903824 601 329.5 601 C 301.6096176 601 279 593.3888416 279 584 Z" opacity="0.2"/></g><g transform="translate(-62,-70) scale(1,1)"><path fill="#ffffff" stroke="none" d="M 272 577 C 272 567.6111584 294.6096176 560 322.5 560 C 350.3903824 560 373 567.6111584 373 577 C 373 586.3888416 350.3903824 594 322.5 594 C 294.6096176 594 272 586.3888416 272 577 Z"/></g><g transform="translate(-62,-70) scale(1,1)"><path fill="none" stroke="#000000" d="M 272 577 C 272 567.6111584 294.6096176 560 322.5 560 C 350.3903824 560 373 567.6111584 373 577 C 373 586.3888416 350.3903824 594 322.5 594 C 294.6096176 594 272 586.3888416 272 577 Z" stroke-miterlimit="10"/></g><g transform="translate(-62,-70) scale(1,1)"><g><path fill="none" stroke="none"/><text fill="#000000" stroke="none" font-family="Arial" font-size="13px" font-style="normal" font-weight="bold" text-decoration="none" x="292.58160400390625" y="582.7260003089905">게시글 수정</text></g></g><g transform="translate(-62,-70) scale(1,1)"><path fill="#C0C0C0" stroke="none" d="M 279 648 C 279 638.6111584 301.6096176 631 329.5 631 C 357.3903824 631 380 638.6111584 380 648 C 380 657.3888416 357.3903824 665 329.5 665 C 301.6096176 665 279 657.3888416 279 648 Z" opacity="0.2"/></g><g transform="translate(-62,-70) scale(1,1)"><path fill="#ffffff" stroke="none" d="M 272 641 C 272 631.6111584 294.6096176 624 322.5 624 C 350.3903824 624 373 631.6111584 373 641 C 373 650.3888416 350.3903824 658 322.5 658 C 294.6096176 658 272 650.3888416 272 641 Z"/></g><g transform="translate(-62,-70) scale(1,1)"><path fill="none" stroke="#000000" d="M 272 641 C 272 631.6111584 294.6096176 624 322.5 624 C 350.3903824 624 373 631.6111584 373 641 C 373 650.3888416 350.3903824 658 322.5 658 C 294.6096176 658 272 650.3888416 272 641 Z" stroke-miterlimit="10"/></g><g transform="translate(-62,-70) scale(1,1)"><g><path fill="none" stroke="none"/><text fill="#000000" stroke="none" font-family="Arial" font-size="13px" font-style="normal" font-weight="bold" text-decoration="none" x="292.58160400390625" y="646.7260003089905">게시글 삭제</text></g></g><g transform="translate(-62,-70) scale(1,1)"><path fill="#C0C0C0" stroke="none" d="M 463 512 C 463 502.6111584 488.2959088 495 519.5 495 C 550.7040912 495 576 502.6111584 576 512 C 576 521.3888416 550.7040912 529 519.5 529 C 488.2959088 529 463 521.3888416 463 512 Z" opacity="0.2"/></g><g transform="translate(-62,-70) scale(1,1)"><path fill="#ffffff" stroke="none" d="M 456 505 C 456 495.6111584 481.2959088 488 512.5 488 C 543.7040912 488 569 495.6111584 569 505 C 569 514.3888416 543.7040912 522 512.5 522 C 481.2959088 522 456 514.3888416 456 505 Z"/></g><g transform="translate(-62,-70) scale(1,1)"><path fill="none" stroke="#000000" d="M 456 505 C 456 495.6111584 481.2959088 488 512.5 488 C 543.7040912 488 569 495.6111584 569 505 C 569 514.3888416 543.7040912 522 512.5 522 C 481.2959088 522 456 514.3888416 456 505 Z" stroke-miterlimit="10"/></g><g transform="translate(-62,-70) scale(1,1)"><g><path fill="none" stroke="none"/><text fill="#000000" stroke="none" font-family="Arial" font-size="13px" font-style="normal" font-weight="bold" text-decoration="none" x="476.9591064453125" y="510.7260003089905">이미지 업로드</text></g></g><g transform="translate(-62,-70) scale(1,1)"><path fill="#C0C0C0" stroke="none" d="M 463 648 C 463 638.6111584 488.2959088 631 519.5 631 C 550.7040912 631 576 638.6111584 576 648 C 576 657.3888416 550.7040912 665 519.5 665 C 488.2959088 665 463 657.3888416 463 648 Z" opacity="0.2"/></g><g transform="translate(-62,-70) scale(1,1)"><path fill="#ffffff" stroke="none" d="M 456 641 C 456 631.6111584 481.2959088 624 512.5 624 C 543.7040912 624 569 631.6111584 569 641 C 569 650.3888416 543.7040912 658 512.5 658 C 481.2959088 658 456 650.3888416 456 641 Z"/></g><g transform="translate(-62,-70) scale(1,1)"><path fill="none" stroke="#000000" d="M 456 641 C 456 631.6111584 481.2959088 624 512.5 624 C 543.7040912 624 569 631.6111584 569 641 C 569 650.3888416 543.7040912 658 512.5 658 C 481.2959088 658 456 650.3888416 456 641 Z" stroke-miterlimit="10"/></g><g transform="translate(-62,-70) scale(1,1)"><g><path fill="none" stroke="none"/><text fill="#000000" stroke="none" font-family="Arial" font-size="13px" font-style="normal" font-weight="bold" text-decoration="none" x="476.9591064453125" y="646.7260003089905">비밀번호 확인</text></g></g><g transform="translate(-62,-70) scale(1,1)"><path fill="#C0C0C0" stroke="none" d="M 279 344 C 279 334.6111584 301.6096176 327 329.5 327 C 357.3903824 327 380 334.6111584 380 344 C 380 353.3888416 357.3903824 361 329.5 361 C 301.6096176 361 279 353.3888416 279 344 Z" opacity="0.2"/></g><g transform="translate(-62,-70) scale(1,1)"><path fill="#ffffff" stroke="none" d="M 272 337 C 272 327.6111584 294.6096176 320 322.5 320 C 350.3903824 320 373 327.6111584 373 337 C 373 346.3888416 350.3903824 354 322.5 354 C 294.6096176 354 272 346.3888416 272 337 Z"/></g><g transform="translate(-62,-70) scale(1,1)"><path fill="none" stroke="#000000" d="M 272 337 C 272 327.6111584 294.6096176 320 322.5 320 C 350.3903824 320 373 327.6111584 373 337 C 373 346.3888416 350.3903824 354 322.5 354 C 294.6096176 354 272 346.3888416 272 337 Z" stroke-miterlimit="10"/></g><g transform="translate(-62,-70) scale(1,1)"><g><path fill="none" stroke="none"/><text fill="#000000" stroke="none" font-family="Arial" font-size="13px" font-style="normal" font-weight="bold" text-decoration="none" x="300.010009765625" y="342.7260003089905">회원가입</text></g></g><g transform="translate(-62,-70) scale(1,1)"><path fill="#C0C0C0" stroke="none" d="M 279 725.5 C 279 717.4918704 302.04651155859375 711 330.475830078125 711 C 358.90514859765625 711 381.95166015625 717.4918704 381.95166015625 725.5 C 381.95166015625 733.5081296 358.90514859765625 740 330.475830078125 740 C 302.04651155859375 740 279 733.5081296 279 725.5 Z" opacity="0.2"/></g><g transform="translate(-62,-70) scale(1,1)"><path fill="#ffffff" stroke="none" d="M 272 718.5 C 272 710.4918704 295.04651155859375 704 323.475830078125 704 C 351.90514859765625 704 374.95166015625 710.4918704 374.95166015625 718.5 C 374.95166015625 726.5081296 351.90514859765625 733 323.475830078125 733 C 295.04651155859375 733 272 726.5081296 272 718.5 Z"/></g><g transform="translate(-62,-70) scale(1,1)"><path fill="none" stroke="#000000" d="M 272 718.5 C 272 710.4918704 295.04651155859375 704 323.475830078125 704 C 351.90514859765625 704 374.95166015625 710.4918704 374.95166015625 718.5 C 374.95166015625 726.5081296 351.90514859765625 733 323.475830078125 733 C 295.04651155859375 733 272 726.5081296 272 718.5 Z" stroke-miterlimit="10"/></g><g transform="translate(-62,-70) scale(1,1)"><path fill="none" stroke="#000000" d="M 272 738 L 374.95166015625 738" stroke-miterlimit="10"/></g><g transform="translate(-62,-70) scale(1,1)"><g><path fill="none" stroke="none"/><text fill="#000000" stroke="none" font-family="Arial" font-size="13px" font-style="normal" font-weight="bold" text-decoration="none" x="306.60833740234375" y="726.7260003089905">로그인</text></g></g><g transform="translate(-62,-70) scale(1,1)"><g><path fill="none" stroke="none"/><text fill="#000000" stroke="none" font-family="Arial" font-size="13px" font-style="normal" font-weight="normal" text-decoration="none" x="277" y="753.7099609375">ExtensionPoint1</text></g></g><g transform="translate(-62,-70) scale(1,1)"><path fill="none" stroke="#000000" d="M 142 391 L 271 393" stroke-miterlimit="10"/></g><g transform="translate(-62,-70) scale(1,1)"><path fill="none" stroke="#000000" d="M 260.7732903253184 397.05147000849985 L 271 393 L 260.90380232302243 388.6334461565907" stroke-miterlimit="10"/></g><g transform="translate(-62,-70) scale(1,1)"><path fill="none" stroke="#000000" d="M 131 532 L 297 411" stroke-miterlimit="10"/></g><g transform="translate(-62,-70) scale(1,1)"><path fill="none" stroke="#000000" d="M 291.2670741395965 420.38794764999875 L 297 411 L 286.30792780333053 413.58449069280744" stroke-miterlimit="10"/></g><g transform="translate(-62,-70) scale(1,1)"><path fill="none" stroke="#000000" d="M 131 545 L 271 516" stroke-miterlimit="10"/></g><g transform="translate(-62,-70) scale(1,1)"><path fill="none" stroke="#000000" d="M 261.9024267999383 522.1833778688933 L 271 516 L 260.1947358761621 513.9393527196287" stroke-miterlimit="10"/></g><g transform="translate(-62,-70) scale(1,1)"><path fill="none" stroke="#000000" d="M 131 554 L 271 571" stroke-miterlimit="10"/></g><g transform="translate(-62,-70) scale(1,1)"><path fill="none" stroke="#000000" d="M 260.40400201088346 573.9537817479696 L 271 571 L 261.4188588643223 565.5961370725911" stroke-miterlimit="10"/></g><g transform="translate(-62,-70) scale(1,1)"><path fill="none" stroke="#000000" d="M 131 562 L 279 623" stroke-miterlimit="10"/></g><g transform="translate(-62,-70) scale(1,1)"><path fill="none" stroke="#000000" d="M 268.00001688706067 623.019274725655 L 279 623 L 271.20820805868686 615.2354666371193" stroke-miterlimit="10"/></g><g transform="translate(-62,-70) scale(1,1)"><path fill="none" stroke="#000000" d="M 374 505 L 455 505" stroke-miterlimit="10" stroke-dasharray="3"/></g><g transform="translate(-62,-70) scale(1,1)"><path fill="none" stroke="#000000" d="M 444.83732514237585 509.209517756016 L 455 505 L 444.83732514237585 500.790482243984" stroke-miterlimit="10"/></g><g transform="translate(-62,-70) scale(1,1)"><g><path fill="none" stroke="none"/><text fill="#000000" stroke="none" font-family="Arial" font-size="13px" font-style="normal" font-weight="normal" text-decoration="none" x="387.5" y="479.7099609375">«extend»</text></g></g><g transform="translate(-62,-70) scale(1,1)"><path fill="none" stroke="#000000" d="M 374 641 L 455 641" stroke-miterlimit="10" stroke-dasharray="3"/></g><g transform="translate(-62,-70) scale(1,1)"><path fill="none" stroke="#000000" d="M 444.83732514237585 645.209517756016 L 455 641 L 444.83732514237585 636.790482243984" stroke-miterlimit="10"/></g><g transform="translate(-62,-70) scale(1,1)"><g><path fill="none" stroke="none"/><text fill="#000000" stroke="none" font-family="Arial" font-size="13px" font-style="normal" font-weight="normal" text-decoration="none" x="386.5" y="615.7099609375">«include»</text></g></g><g transform="translate(-62,-70) scale(1,1)"><path fill="none" stroke="#000000" d="M 142 382 L 271 350" stroke-miterlimit="10"/></g><g transform="translate(-62,-70) scale(1,1)"><path fill="none" stroke="#000000" d="M 262.1497798828764 356.53250364549916 L 271 350 L 260.12277171433 348.3611269660466" stroke-miterlimit="10"/></g><g transform="translate(-62,-70) scale(1,1)"><path fill="none" stroke="#000000" d="M 131 573 L 288 703" stroke-miterlimit="10"/></g><g transform="translate(-62,-70) scale(1,1)"><path fill="none" stroke="#000000" d="M 277.48772432910675 699.7608550172698 L 288 703 L 282.85711996994394 693.2762772048741" stroke-miterlimit="10"/></g></g></svg>